<?xml version="1.0" encoding="utf-8"?>
<!-- Generator: Adobe Illustrator 24.0.2, SVG Export Plug-In . SVG Version: 6.00 Build 0)  -->
<svg xmlns:xlink="http://www.w3.org/1999/xlink" version="1.1" id="Layer_1" xmlns="http://www.w3.org/2000/svg" x="0px" y="0px"
	 viewBox="0 0 135 36" style="enable-background:new 0 0 135 36;" xml:space="preserve">
<style type="text/css">
	.st0{fill:#FCB813;}
	.st1{fill:#FFFFFF;}
	.st2{fill:#58595B;}
</style>
<g>
	<path class="st0" d="M2,20.66c0,7.78,6.31,14.09,14.09,14.09c7.78,0,14.09-6.31,14.09-14.09c0-7.78-6.31-14.09-14.09-14.09
		C8.31,6.57,2,12.88,2,20.66z"/>
	<path class="st0" d="M27.27,5.37c0,2.27,1.84,4.11,4.11,4.11c2.27,0,4.11-1.84,4.11-4.11c0-2.27-1.84-4.11-4.11-4.11
		C29.11,1.26,27.27,3.1,27.27,5.37z"/>
	<path class="st1" d="M6.76,23.98l2.78-3.29l-2.54-2.92C6.66,17.36,6.5,17,6.5,16.59c0-0.87,0.65-1.42,1.42-1.42
		c0.61,0,1.03,0.28,1.44,0.79l2.01,2.68l2.05-2.68c0.37-0.45,0.79-0.79,1.34-0.79c0.81,0,1.44,0.57,1.44,1.34
		c0,0.43-0.18,0.75-0.43,1.06l-2.64,3.08l2.72,3.13c0.35,0.4,0.51,0.77,0.51,1.17c0,0.87-0.65,1.42-1.42,1.42
		c-0.61,0-1.04-0.28-1.44-0.79l-2.19-2.88l-2.19,2.88c-0.36,0.45-0.79,0.79-1.34,0.79c-0.81,0-1.44-0.57-1.44-1.34
		C6.34,24.6,6.5,24.28,6.76,23.98z"/>
	<path class="st1" d="M21.83,26.45c-3.27,0-5.68-2.29-5.68-5.62v-0.04c0-3.1,2.21-5.66,5.38-5.66c3.63,0,5.23,2.98,5.23,5.23
		c0,0.89-0.63,1.48-1.44,1.48h-6.11c0.3,1.4,1.28,2.13,2.66,2.13c0.85,0,1.56-0.26,2.19-0.73c0.23-0.16,0.43-0.24,0.75-0.24
		c0.69,0,1.2,0.53,1.2,1.21c0,0.41-0.18,0.71-0.4,0.92C24.65,25.94,23.41,26.45,21.83,26.45z M23.82,19.92
		c-0.18-1.38-0.99-2.31-2.29-2.31c-1.28,0-2.11,0.91-2.36,2.31H23.82z"/>
	<path class="st2" d="M37.69,19.8l2.24-2.74c0.08-0.1,0.14-0.21,0.14-0.35c0-0.28-0.21-0.48-0.48-0.48c-0.2,0-0.34,0.11-0.46,0.26
		l-2.05,2.61L35,16.49c-0.13-0.15-0.27-0.25-0.47-0.25c-0.28,0-0.5,0.19-0.5,0.5c0,0.14,0.05,0.26,0.16,0.39l2.21,2.7l-2.35,2.89
		c-0.1,0.1-0.14,0.21-0.14,0.35c0,0.26,0.21,0.49,0.49,0.49c0.19,0,0.33-0.11,0.46-0.27l2.16-2.75l2.18,2.76
		c0.13,0.15,0.26,0.25,0.47,0.25c0.28,0,0.5-0.21,0.5-0.5c0-0.14-0.06-0.26-0.15-0.39L37.69,19.8z"/>
	<path class="st2" d="M65.29,16.24h-3.74h-0.03h0c-2.02,0-3.75,1.58-3.75,3.75c0,2.15,1.69,3.73,3.72,3.73h0.03
		c2.03,0,3.75-1.59,3.75-3.76c0-1.07-0.42-1.99-1.08-2.65h1.11c0.3,0,0.54-0.22,0.54-0.53C65.83,16.47,65.59,16.24,65.29,16.24z
		 M64.31,19.98c0,1.55-1.25,2.64-2.76,2.64h-0.03c-1.54,0-2.8-1.15-2.8-2.66c0-1.55,1.26-2.62,2.77-2.62h0.03
		C63.06,17.33,64.31,18.47,64.31,19.98z"/>
	<path class="st2" d="M117.55,16.24c-2.16,0-3.75,1.72-3.75,3.75v0v0.03v5.53c0,0.31,0.24,0.54,0.54,0.54
		c0.31,0,0.53-0.23,0.53-0.54v-2.9c0.66,0.67,1.58,1.08,2.65,1.08c2.17,0,3.76-1.72,3.76-3.75v-0.03
		C121.28,17.93,119.7,16.24,117.55,16.24z M120.18,20.01c0,1.51-1.08,2.76-2.64,2.76c-1.51,0-2.65-1.25-2.65-2.79v-0.03
		c0-1.51,1.07-2.77,2.62-2.77c1.51,0,2.67,1.26,2.67,2.8V20.01z"/>
	<path class="st2" d="M45.02,16.24c-2.17,0-3.75,1.72-3.75,3.75v0v0.03v5.53c0,0.31,0.24,0.54,0.54,0.54c0.3,0,0.53-0.23,0.53-0.54
		v-2.9c0.66,0.67,1.58,1.08,2.65,1.08c2.16,0,3.76-1.72,3.76-3.75v-0.03C48.75,17.93,47.17,16.24,45.02,16.24z M47.65,20.01
		c0,1.51-1.08,2.76-2.64,2.76c-1.51,0-2.65-1.25-2.65-2.79v-0.03c0-1.51,1.07-2.77,2.62-2.77c1.51,0,2.66,1.26,2.66,2.8V20.01z"/>
	<path class="st2" d="M70.52,16.24c-1.23,0-1.97,0.62-2.46,1.4v-0.78c0-0.3-0.24-0.54-0.53-0.54c-0.31,0-0.53,0.25-0.53,0.54v6.23
		c0,0.31,0.24,0.54,0.53,0.54c0.3,0,0.53-0.24,0.53-0.54v-3.63c0-1.35,0.93-2.25,2.15-2.25c1.26,0,1.98,0.83,1.98,2.16v3.72
		c0,0.31,0.25,0.54,0.54,0.54c0.31,0,0.53-0.24,0.53-0.54v-3.98C73.27,17.4,72.26,16.24,70.52,16.24z"/>
	<path class="st2" d="M97.91,19.5l2.34-2.3c0.14-0.14,0.21-0.25,0.21-0.42c0-0.26-0.19-0.5-0.49-0.5c-0.17,0-0.29,0.07-0.41,0.21
		l-3.89,3.95v-3.67c0-0.29-0.24-0.54-0.54-0.54c-0.29,0-0.53,0.25-0.53,0.54v6.28c0,0.31,0.23,0.54,0.54,0.54
		c0.31,0,0.53-0.23,0.53-0.54v-1.37l1.49-1.47l2.48,3.14c0.14,0.18,0.26,0.25,0.46,0.25c0.29,0,0.51-0.21,0.51-0.5
		c0-0.14-0.04-0.23-0.14-0.36L97.91,19.5z"/>
	<path class="st2" d="M108.28,16.33c-0.29,0-0.53,0.25-0.53,0.54v0.76c-0.67-0.85-1.71-1.4-2.94-1.4c-2.16,0-3.74,1.72-3.74,3.75
		v0.03c0,2.03,1.57,3.72,3.72,3.72c1.24,0,2.29-0.57,2.96-1.43v0.8c0,0.31,0.23,0.54,0.54,0.54c0.31,0,0.53-0.24,0.53-0.54v-6.23
		C108.83,16.56,108.59,16.33,108.28,16.33z M107.46,20.01c0,1.51-1.08,2.76-2.64,2.76c-1.51,0-2.65-1.25-2.65-2.79v-0.03
		c0-1.51,1.07-2.77,2.62-2.77c1.51,0,2.66,1.26,2.66,2.8V20.01z"/>
	<path class="st2" d="M132.46,16.33c-0.29,0-0.53,0.25-0.53,0.54v0.76c-0.67-0.85-1.71-1.4-2.93-1.4c-2.17,0-3.75,1.72-3.75,3.75
		v0.03c0,2.03,1.57,3.72,3.72,3.72c1.24,0,2.29-0.57,2.96-1.43v0.8c0,0.31,0.24,0.54,0.54,0.54c0.3,0,0.53-0.24,0.53-0.54v-6.23
		C133,16.56,132.77,16.33,132.46,16.33z M131.63,20.01c0,1.51-1.08,2.76-2.63,2.76c-1.51,0-2.65-1.25-2.65-2.79v-0.03
		c0-1.51,1.07-2.77,2.62-2.77c1.51,0,2.66,1.26,2.66,2.8V20.01z"/>
	<path class="st2" d="M123.06,16.24c-0.29,0-0.53,0.25-0.53,0.54v6.23c0,0.3,0.24,0.54,0.54,0.54c0.3,0,0.53-0.24,0.53-0.54v-6.23
		C123.6,16.47,123.36,16.24,123.06,16.24z"/>
	<path class="st2" d="M111.42,16.24c-0.29,0-0.52,0.25-0.52,0.54v6.23c0,0.3,0.23,0.54,0.54,0.54c0.3,0,0.53-0.24,0.53-0.54v-6.23
		C111.96,16.47,111.72,16.24,111.42,16.24z"/>
	<path class="st2" d="M84.92,21.68c-0.13,0-0.24,0.05-0.32,0.14c-0.64,0.58-1.53,1.03-2.59,1.03c-1.22,0-2.26-0.32-2.26-1.33
		c0-0.86,0.85-1.3,1.97-1.3h1.55v-0.8h-1.48c-1.12,0-1.72-0.49-1.72-1.07c0-0.9,0.96-1.19,1.93-1.19c1.11,0,1.79,0.33,2.44,0.87
		c0.08,0.08,0.2,0.13,0.32,0.13c0.26,0,0.48-0.21,0.48-0.48c0-0.19-0.11-0.35-0.27-0.43c-0.7-0.58-1.55-0.99-2.94-0.99
		c-1.54,0-3.07,0.57-3.07,1.98c0,0.69,0.54,1.35,1.54,1.53v0.02c-1,0.21-1.85,0.88-1.85,1.83c0,1.55,1.36,2.14,3.33,2.14
		c1.43,0,2.48-0.58,3.27-1.32l-0.01-0.01c0.07-0.08,0.12-0.18,0.12-0.3C85.37,21.88,85.16,21.68,84.92,21.68z"/>
	<path class="st2" d="M69.37,15.49c0.17,0.1,0.38,0.06,0.51-0.08l1.19-1.4c0.08-0.09,0.11-0.22,0.09-0.33
		c-0.02-0.12-0.1-0.22-0.21-0.28l-0.53-0.26c-0.1-0.05-0.22-0.06-0.32-0.02c-0.1,0.04-0.18,0.12-0.22,0.22L69.2,15
		C69.13,15.18,69.2,15.39,69.37,15.49z"/>
	<path class="st2" d="M124.67,13.4l-0.53-0.26c-0.1-0.05-0.21-0.06-0.32-0.02c-0.1,0.04-0.19,0.12-0.23,0.22L122.93,15
		c-0.07,0.18,0,0.38,0.16,0.49c0.16,0.1,0.38,0.06,0.51-0.08l1.19-1.4c0.08-0.09,0.11-0.22,0.09-0.33
		C124.85,13.55,124.78,13.45,124.67,13.4z"/>
	<path class="st2" d="M55.72,16.24c-0.29,0-0.54,0.24-0.54,0.54v3.72c0,1.19-0.92,2.03-2.06,2.03c-1.05,0-2.06-0.83-2.06-2.03v-3.72
		c0-0.31-0.25-0.54-0.54-0.54c-0.31,0-0.53,0.24-0.53,0.54v3.98c0,1.68,1.43,2.84,3.12,2.87l0,0h0h0.01l0,0
		c1.69-0.04,3.12-1.19,3.12-2.87v-3.98C56.25,16.47,56.03,16.24,55.72,16.24z"/>
	<path class="st2" d="M92.21,16.24c-0.29,0-0.54,0.23-0.54,0.54v3.72c0,1.2-0.92,2.03-2.06,2.03c-1.05,0-2.06-0.84-2.06-2.03v-3.72
		c0-0.31-0.25-0.54-0.54-0.54c-0.31,0-0.53,0.23-0.53,0.54v3.98c0,1.68,1.43,2.84,3.12,2.87l0,0h0h0.01l0,0
		c1.69-0.04,3.12-1.19,3.12-2.87v-3.98C92.74,16.47,92.52,16.24,92.21,16.24z"/>
</g>
</svg>
